<?xml version="1.0" standalone="no"?>
<!DOCTYPE svg PUBLIC "-//W3C//DTD SVG 20010904//EN"
 "http://www.w3.org/TR/2001/REC-SVG-20010904/DTD/svg10.dtd">
<svg version="1.0" xmlns="http://www.w3.org/2000/svg"
 width="1000.000000pt" height="500.000000pt" viewBox="0 0 1000.000000 500.000000"
 preserveAspectRatio="xMidYMid meet">

<g transform="translate(0.000000,500.000000) scale(0.100000,-0.100000)"
fill="#000000" stroke="none">
<path d="M7710 4338 c-109 -55 -204 -129 -242 -187 -25 -40 -29 -53 -25 -96 3
-27 8 -59 11 -70 6 -21 -25 -49 -169 -149 -38 -27 -72 -51 -75 -53 -2 -2 11
-16 30 -31 67 -51 153 -137 197 -196 l44 -59 142 -2 c129 -1 148 -3 210 -28
38 -15 81 -36 97 -47 21 -15 44 -20 88 -20 89 0 254 -18 364 -40 276 -56 555
-193 730 -358 37 -35 68 -60 68 -55 0 16 -128 169 -187 223 -217 198 -490 307
-868 346 -60 6 -66 8 -40 15 16 5 92 13 168 19 237 18 470 -20 676 -109 102
-43 102 -33 1 34 -250 166 -522 214 -900 158 -90 -13 -123 -13 -232 -2 -71 7
-128 15 -128 18 0 4 11 23 25 43 26 39 31 58 15 58 -18 0 -91 73 -111 111 -23
45 -25 128 -5 167 23 44 108 118 175 151 l61 31 0 48 c0 68 -11 122 -24 122
-7 0 -50 -19 -96 -42z"/>
<path d="M7905 4163 c-244 -98 -312 -202 -207 -315 62 -67 157 -54 243 32 58
58 89 145 89 251 0 83 1 83 -125 32z"/>
<path d="M6990 3721 c-209 -71 -430 -173 -748 -348 -218 -119 -590 -343 -757
-456 l-140 -94 -3 -89 c-4 -115 12 -227 49 -339 116 -348 333 -446 655 -296
152 72 291 174 629 466 334 289 497 412 693 526 53 31 95 63 99 74 12 39 6
151 -11 203 -42 124 -178 281 -326 375 -24 15 -31 14 -140 -22z"/>
<path d="M7542 3423 c-19 -4 -23 -9 -18 -26 3 -12 11 -52 17 -89 l12 -66 55
-7 c92 -11 126 -70 86 -146 -8 -17 -54 -72 -101 -122 -231 -247 -359 -436
-423 -628 -28 -83 -31 -186 -6 -224 56 -85 184 -58 349 74 228 184 431 534
477 823 34 210 -28 330 -198 389 -56 19 -204 33 -250 22z"/>
<path d="M7990 3375 c0 -4 9 -20 21 -36 20 -29 59 -127 59 -150 0 -6 25 -38
55 -70 148 -161 275 -404 357 -684 32 -111 68 -304 68 -368 0 -23 4 -48 9 -56
6 -9 12 26 16 94 28 402 -121 829 -385 1108 -70 74 -200 179 -200 162z"/>
<path d="M8070 3053 c0 -21 -6 -60 -14 -88 -12 -48 -12 -52 14 -105 59 -119
125 -373 151 -585 19 -156 14 -475 -9 -630 -11 -71 -19 -132 -17 -133 7 -8 75
218 94 313 82 404 25 833 -157 1178 -25 48 -49 87 -54 87 -4 0 -8 -17 -8 -37z"/>
<path d="M7124 2841 c-106 -79 -371 -299 -494 -409 l-45 -41 35 -30 c51 -44
176 -107 240 -121 30 -6 91 -10 135 -8 l80 3 7 52 c19 133 132 344 285 536 30
38 53 70 51 72 -2 2 -35 9 -73 15 -39 6 -77 13 -86 15 -9 3 -64 -31 -135 -84z"/>
<path d="M3545 2799 c-112 -173 -191 -350 -247 -552 -27 -101 -30 -120 -18
-128 36 -23 133 -53 230 -71 138 -26 143 -28 95 -44 -78 -24 -171 -16 -330 31
-18 5 -24 -6 -58 -109 -21 -63 -60 -157 -87 -210 l-48 -96 69 -20 c110 -33
214 -50 305 -50 l83 0 39 53 c97 131 169 281 228 477 86 285 182 487 317 673
27 37 48 70 46 72 -13 12 -242 37 -395 42 l-181 6 -48 -74z"/>
<path d="M3285 2824 c-118 -16 -241 -43 -387 -85 l-106 -31 -35 -77 c-60 -130
-111 -326 -131 -502 l-7 -56 38 -11 c53 -16 151 -29 268 -38 l100 -7 -41 -18
c-85 -38 -240 -42 -336 -10 -26 9 -28 8 -33 -27 -15 -91 -50 -235 -79 -319
l-33 -92 51 -6 c78 -10 222 -11 309 -1 90 9 95 13 164 128 64 107 138 304 168
448 49 239 124 440 231 620 30 51 54 94 54 96 0 8 -96 2 -195 -12z"/>
<path d="M4213 2755 c-123 -161 -222 -347 -297 -565 l-36 -101 33 -19 c47 -29
170 -75 259 -96 43 -11 78 -22 78 -25 0 -9 -65 -19 -120 -19 -59 0 -147 23
-210 55 -27 14 -51 25 -54 25 -2 0 -12 -24 -22 -52 -24 -75 -106 -248 -143
-301 -17 -25 -31 -48 -31 -52 0 -10 119 -61 195 -84 39 -11 106 -26 149 -32
75 -10 79 -9 102 12 69 65 219 334 303 545 84 212 172 516 187 650 6 45 4 53
-12 57 -16 5 -107 27 -301 72 -18 4 -32 -9 -80 -70z"/>
<path d="M5135 2774 c-60 -12 -122 -23 -138 -24 l-27 0 6 -167 c7 -179 -5
-376 -32 -560 -18 -119 -21 -122 -81 -123 -19 0 -21 3 -14 23 5 13 17 73 27
133 14 86 18 169 19 394 l0 285 -99 8 c-55 4 -101 5 -103 3 -2 -2 -17 -68 -33
-147 -73 -363 -225 -755 -396 -1021 -24 -38 -38 -68 -31 -68 6 0 57 7 112 15
55 7 100 13 100 12 1 -1 9 -33 19 -71 21 -83 53 -149 113 -234 78 -111 98
-164 98 -267 0 -78 -4 -97 -27 -140 -33 -63 -88 -115 -156 -150 -30 -14 -52
-29 -49 -32 3 -3 42 0 87 6 140 19 236 85 277 193 22 57 22 196 1 263 -28 86
-47 124 -112 219 -61 90 -102 178 -113 242 -4 25 -1 33 14 38 10 3 50 26 88
51 37 25 70 45 72 45 2 0 1 -10 -1 -22 -3 -13 -8 -45 -11 -73 l-7 -50 26 24
25 24 6 -29 c35 -156 78 -230 209 -359 76 -75 120 -126 135 -158 65 -142 41
-279 -66 -382 -26 -25 -44 -45 -40 -45 4 0 39 16 78 36 81 40 152 106 179 167
41 89 15 242 -60 353 -19 27 -79 94 -135 149 -88 86 -105 109 -128 168 -15 37
-33 103 -41 148 l-14 80 54 91 c29 50 56 93 60 97 3 3 4 -69 2 -161 l-3 -167
26 25 25 24 56 -112 c62 -125 141 -227 209 -273 150 -101 214 -169 272 -293
45 -94 45 -179 -1 -276 l-32 -69 42 35 c102 84 158 214 137 318 -23 113 -127
260 -240 340 -123 86 -197 172 -276 319 l-72 133 18 37 19 36 31 -67 c16 -38
34 -68 39 -68 13 0 54 55 80 106 29 56 53 154 62 254 8 82 7 87 -20 136 -82
147 -121 292 -128 472 -3 89 -8 132 -16 131 -6 -1 -60 -12 -121 -25z"/>
<path d="M2582 2580 c-178 -73 -387 -189 -514 -286 l-61 -47 6 -72 c6 -78 38
-198 61 -230 28 -39 235 -18 386 38 l85 32 8 99 c9 127 39 272 81 397 18 55
30 99 27 99 -3 0 -39 -14 -79 -30z"/>
<path d="M7756 2336 c-32 -42 -93 -109 -137 -150 -72 -68 -78 -77 -73 -105 6
-27 11 -31 53 -36 66 -9 142 -33 173 -55 32 -23 37 -19 68 65 41 112 35 273
-13 338 -12 17 -18 13 -71 -57z"/>
<path d="M6410 2251 c-144 -112 -271 -192 -371 -233 l-77 -31 31 -40 c37 -46
132 -119 198 -152 78 -40 165 -58 254 -52 136 8 240 64 410 218 50 45 118 104
153 131 34 27 62 53 62 56 0 4 -39 7 -88 8 -147 2 -262 43 -388 138 -34 25
-64 46 -66 46 -2 0 -55 -40 -118 -89z"/>
<path d="M1855 2069 c-90 -47 -191 -113 -248 -164 -35 -30 -38 -37 -32 -67 9
-42 48 -94 85 -113 65 -34 201 -9 320 57 30 17 56 32 58 33 1 1 -13 43 -32 92
-19 50 -40 116 -47 147 -8 31 -16 56 -19 56 -3 0 -41 -19 -85 -41z"/>
<path d="M5485 2001 c-7 -67 -5 -73 36 -167 73 -166 147 -259 263 -328 78 -47
49 -46 -43 0 -91 45 -185 132 -248 229 -47 73 -63 88 -63 62 0 -7 -16 -40 -35
-72 l-35 -58 27 -41 c15 -23 64 -78 109 -123 138 -138 272 -190 549 -213 69
-5 146 -18 180 -30 126 -42 216 -128 251 -239 21 -64 23 -198 5 -275 -7 -27
-10 -50 -8 -52 6 -6 74 137 94 196 12 36 18 84 18 140 0 72 -4 93 -27 140 -48
98 -161 186 -297 231 l-66 22 100 18 c178 32 264 21 376 -47 73 -44 177 -155
211 -224 28 -58 48 -147 48 -214 1 -31 3 -37 10 -24 22 36 43 148 42 225 0
102 -28 168 -104 249 -51 55 -52 56 -18 39 100 -50 257 -192 327 -295 72 -106
110 -212 122 -334 l7 -71 14 60 c21 88 19 266 -4 340 -39 129 -153 266 -310
369 -88 58 -128 78 -221 107 -70 22 -116 27 -365 39 -197 9 -268 24 -358 77
-57 33 -143 121 -173 177 l-24 46 -78 0 c-77 0 -78 -1 -72 -22 16 -53 93 -168
154 -228 39 -39 94 -81 136 -103 76 -39 68 -45 -37 -23 -84 18 -118 36 -181
95 -65 60 -118 142 -152 236 -24 65 -33 78 -70 99 -23 14 -47 32 -55 40 -22
27 -28 18 -35 -53z"/>
<path d="M7045 2028 c-27 -24 -93 -81 -145 -127 -52 -46 -129 -107 -170 -134
-67 -44 -71 -49 -40 -43 133 23 202 26 355 15 191 -14 252 -5 318 45 53 40
102 132 111 210 4 32 6 60 3 62 -2 2 -34 -10 -70 -26 -116 -55 -214 -51 -272
10 -16 17 -31 30 -34 30 -3 0 -28 -19 -56 -42z"/>
<path d="M7531 1925 c-27 -107 -97 -197 -184 -236 -48 -22 -64 -24 -215 -23
l-163 1 6 -26 c14 -58 38 -75 126 -95 14 -3 62 -42 106 -86 45 -44 86 -80 93
-80 7 0 10 19 8 58 l-3 57 43 3 c36 3 52 -3 97 -32 47 -32 96 -56 112 -56 3 0
2 12 -2 28 -25 92 -25 92 4 106 23 12 36 12 104 -7 42 -11 80 -18 83 -14 3 3
-10 30 -30 61 l-35 55 21 26 c20 26 23 26 89 20 38 -4 69 -4 69 1 0 4 -22 31
-49 59 -48 51 -50 54 -39 88 9 30 8 40 -6 62 -23 35 -94 66 -166 72 l-57 6
-12 -48z"/>
<path d="M2459 1904 c-78 -28 -221 -54 -295 -54 -30 0 -54 -3 -54 -7 0 -5 9
-57 21 -118 11 -60 23 -158 26 -218 7 -125 -8 -120 143 -54 109 48 108 47 165
215 37 109 76 263 66 261 -3 -1 -36 -12 -72 -25z"/>
<path d="M1367 1720 c-158 -105 -199 -144 -226 -214 -43 -115 -36 -225 17
-266 22 -18 36 -21 76 -17 63 6 220 85 345 175 104 74 315 252 307 259 -2 2
-21 0 -43 -6 -56 -16 -158 -13 -201 5 -48 20 -100 69 -122 117 l-17 37 -136
-90z"/>
<path d="M1935 1598 c-257 -235 -481 -387 -639 -433 -55 -16 -57 -18 -41 -36
27 -29 83 -43 178 -42 48 0 87 -1 87 -3 0 -1 -5 -15 -10 -30 -6 -15 -8 -35 -4
-46 5 -17 9 -17 62 13 31 18 161 100 289 183 l232 151 0 62 c1 71 -18 262 -28
279 -3 7 -53 -31 -126 -98z"/>
<path d="M3160 1469 c-19 -23 -59 -58 -90 -79 -118 -80 -186 -179 -197 -285
-7 -68 9 -109 48 -126 46 -19 98 2 169 68 49 45 71 76 110 156 43 88 102 279
89 291 -2 2 -24 7 -49 10 -43 5 -47 4 -80 -35z"/>
<path d="M3585 1449 c-116 -78 -159 -120 -195 -192 -64 -129 -42 -237 49 -237
36 0 122 54 173 109 61 65 104 141 147 259 28 76 29 83 13 89 -9 3 -32 12 -51
19 -18 8 -36 14 -40 14 -3 0 -46 -27 -96 -61z"/>
<path d="M951 1381 c-173 -174 -185 -287 -26 -265 27 3 67 13 89 20 56 20 61
18 31 -17 -38 -46 -65 -103 -71 -153 -6 -41 -4 -48 24 -75 29 -29 35 -31 109
-31 85 0 146 15 261 62 68 29 72 32 72 63 l0 32 -77 5 c-113 7 -192 53 -193
113 0 13 -13 26 -38 37 -51 24 -83 82 -89 162 -3 33 -1 78 5 99 6 20 6 37 1
37 -4 0 -49 -40 -98 -89z"/>
<path d="M2677 1446 c-3 -8 -43 -41 -88 -72 -140 -98 -200 -178 -220 -292 -9
-48 -8 -66 5 -95 35 -84 114 -73 216 31 75 76 125 170 163 303 44 153 46 139
-17 139 -38 0 -56 -4 -59 -14z"/>
</g>
</svg>
